# xmcd
#
# Track frame offsets:
#	150
#	19607
#	36482
#	57424
#	78204
#	95726
#	124511
#	143864
#	156803
#	187116
#	207651
#	224220
#	241140
#	261026
#	281688
#	303054
#	322599
#	336735
#
# Disc length: 4624 seconds
#
# Revision: 0
# Processed by: cddbd v1.5.2PL0 Copyright (c) Steve Scherf et al.
# Submitted via: dBpowerAMP V4.0
#
DISCID=0f120e12
DTITLE=Gladys Knigth - Gladys Knigth Greatest Hits
DYEAR=1900
DGENRE=Pop
TTITLE0=Neither One Of Us
TTITLE1=For Once In My Life
TTITLE2=End Of The Road
TTITLE3=Midnight Train To Georgia
TTITLE4=So Sad The Song
TTITLE5=Superman 
TTITLE6=That's What Friends Are For
TTITLE7=I Heard It Throught The Grapevine
TTITLE8=I Don't do Duets
TTITLE9=Love Hurts
TTITLE10=Misty Blue
TTITLE11=My Live Story
TTITLE12=Missing You
TTITLE13=Memories
TTITLE14=Save The Overtime For Me
TTITLE15=On And On
TTITLE16=If I Was Your Woman
TTITLE17=End Of Our Road
EXTD=
EXTT0=
EXTT1=
EXTT2=
EXTT3=
EXTT4=
EXTT5=
EXTT6=
EXTT7=
EXTT8=
EXTT9=
EXTT10=
EXTT11=
EXTT12=
EXTT13=
EXTT14=
EXTT15=
EXTT16=
EXTT17=
PLAYORDER=
